<?xml version="1.0" encoding="UTF-8"?>
<svg id="Layer_2" data-name="Layer 2" xmlns="http://www.w3.org/2000/svg" viewBox="0 0 120 120">
  <defs>
    <style>
      .cls-1 {
        fill: #1a1a1a;
      }

      .cls-1, .cls-2 {
        stroke-width: 0px;
      }

      .cls-2 {
        fill: none;
      }
    </style>
  </defs>
  <g id="Store">
    <g id="Link-List-Icon-Gift">
      <g id="Bounding_Box" data-name="Bounding Box">
        <rect class="cls-2" width="120" height="120"/>
      </g>
      <g>
        <path class="cls-1" d="m100.48,63.41H19.51c-2.42,0-4.38-1.96-4.38-4.38v-18.67c0-2.42,1.96-4.38,4.38-4.38h80.97c2.42,0,4.38,1.96,4.38,4.38v18.67c0,2.42-1.96,4.38-4.38,4.38ZM19.51,39.98c-.21,0-.38.17-.38.38v18.67c0,.21.17.38.38.38h80.97c.21,0,.38-.17.38-.38v-18.67c0-.21-.17-.38-.38-.38H19.51Z"/>
        <path class="cls-1" d="m86.43,110h-52.87c-7.31,0-13.26-5.95-13.26-13.26v-35.33c0-1.1.9-2,2-2h75.39c1.1,0,2,.9,2,2v35.33c0,7.31-5.95,13.26-13.26,13.26ZM24.3,63.41v33.33c0,5.11,4.15,9.26,9.26,9.26h52.87c5.11,0,9.26-4.15,9.26-9.26v-33.33H24.3Z"/>
        <path class="cls-1" d="m60,110c-1.1,0-2-.9-2-2V37.98c0-1.1.9-2,2-2s2,.9,2,2v70.02c0,1.1-.9,2-2,2Z"/>
        <path class="cls-1" d="m60,39.98h-12.99c-8.27,0-14.99-6.72-14.99-14.99s6.72-14.99,14.99-14.99,14.99,6.72,14.99,14.99v12.99c0,1.1-.9,2-2,2Zm-12.99-25.98c-6.06,0-10.99,4.93-10.99,10.99s4.93,10.99,10.99,10.99h10.99v-10.99c0-6.06-4.93-10.99-10.99-10.99Z"/>
        <path class="cls-1" d="m73.01,39.98h-12.99c-1.1,0-2-.9-2-2v-12.99c0-8.27,6.72-14.99,14.99-14.99s14.99,6.72,14.99,14.99-6.72,14.99-14.99,14.99Zm-10.99-4h10.99c6.06,0,10.99-4.93,10.99-10.99s-4.93-10.99-10.99-10.99-10.99,4.93-10.99,10.99v10.99Z"/>
      </g>
    </g>
  </g>
</svg>