<?xml version="1.0" encoding="UTF-8"?>
<svg id="Layer_2" data-name="Layer 2" xmlns="http://www.w3.org/2000/svg" viewBox="0 0 120 120">
  <defs>
    <style>
      .cls-1 {
        fill: #1a1a1a;
      }

      .cls-1, .cls-2 {
        stroke-width: 0px;
      }

      .cls-2 {
        fill: none;
      }
    </style>
  </defs>
  <g id="Surface">
    <g id="Link-List-Icon-Audio-Accessories">
      <g id="Bounding_Box" data-name="Bounding Box">
        <rect class="cls-2" width="120" height="120"/>
      </g>
      <path class="cls-1" d="m96.04,109.81h-12.89c-3.31,0-6-2.69-6-6v-25.57c0-3.31,2.69-6,6-6h22.65v-11.44c0-25.27-20.19-46.17-45.01-46.58-12.41-.23-24.07,4.46-32.9,13.14-8.83,8.68-13.69,20.28-13.69,32.66v12.22h22.65c3.31,0,6,2.69,6,6v25.57c0,3.31-2.69,6-6,6h-12.89c-7.59,0-13.76-6.17-13.76-13.76v-36.04c0-13.46,5.29-26.07,14.89-35.51,9.6-9.44,22.29-14.5,35.77-14.28,26.99.45,48.95,23.14,48.95,50.58v35.25c0,7.59-6.17,13.76-13.76,13.76Zm-12.89-33.58c-1.1,0-2,.9-2,2v25.57c0,1.1.9,2,2,2h12.89c5.38,0,9.76-4.38,9.76-9.76v-19.82h-22.65Zm-68.96,0v19.82c0,5.38,4.38,9.76,9.76,9.76h12.89c1.1,0,2-.9,2-2v-25.57c0-1.1-.9-2-2-2H14.19Z"/>
    </g>
  </g>
</svg>